PathFileType	4	(X/Y/Z)	Patient4_TMGait_0pt4_03_left_36.trc.trc
DataRate	CameraRate	NumFrames	NumMarkers	Units	OrigDataRate	OrigDataStartFrame	OrigNumFrames
72.164948453608	72.164948453608	6	33	mm	72.164948453608	53	       141
Frame#	Time	Sacral			L.Shoulder			Chest			R.Shoulder			Neck			R.ASIS			L.ASIS			R.Thigh.Superior			R.Thigh.Lateral			R.Thigh.Inferior			R.Patella			L.Thigh.Superior			L.Thigh.Lateral			L.Thigh.Inferior			L.Patella			L.Shank.Superior			L.Shank.Lateral			L.Shank.Inferior			R.Shank.Superior			R.Shank.Lateral			R.Shank.Inferior			R.Heel			R.Midfoot.Superior			R.Midfoot.Lateral			R.Toe			L.Heel			L.Midfoot.Lateral			L.Midfoot.Superior			L.Toe			L.Elbow			L.Wrist			R.Elbow			R.Wrist			
		X1	Y1	Z1	X2	Y2	Z2	X3	Y3	Z3	X4	Y4	Z4	X5	Y5	Z5	X6	Y6	Z6	X7	Y7	Z7	X8	Y8	Z8	X9	Y9	Z9	X10	Y10	Z10	X11	Y11	Z11	X12	Y12	Z12	X13	Y13	Z13	X14	Y14	Z14	X15	Y15	Z15	X16	Y16	Z16	X17	Y17	Z17	X18	Y18	Z18	X19	Y19	Z19	X20	Y20	Z20	X21	Y21	Z21	X22	Y22	Z22	X23	Y23	Z23	X24	Y24	Z24	X25	Y25	Z25	X26	Y26	Z26	X27	Y27	Z27	X28	Y28	Z28	X29	Y29	Z29	X30	Y30	Z30	X31	Y31	Z31	X32	Y32	Z32	X33	Y33	Z33	

53	48.370571428571	858.901729728514	1004.591749254829	429.877692148615	1028.782525597823	1432.629336656847	231.556692186085	1136.451954041398	1371.132337570102	392.703434159661	1053.096140904272	1446.117577900941	566.976206345602	1013.186252659374	1497.785346910309	387.392641424885	1092.150119988387	947.116182068513	541.258898716053	1071.970556388118	965.048626623432	268.172329674720	1172.370520190914	771.286172020638	516.280203677518	1128.380460057330	652.976987060546	594.972372242074	1218.842004852936	610.640722677097	519.219499933953	1234.346378254089	499.435010551223	544.987881724864	1124.400368071277	751.782969233434	295.584402551326	1034.356956257475	634.565561618060	240.546372978228	1120.293262582519	557.922887321082	301.844884522581	1120.751182748035	488.683059698980	313.239504872984	1092.125426536096	415.966055113582	307.061351681372	1000.171880832330	303.281092888923	257.844963991271	1045.732876103305	191.512627390818	330.631490878115	1157.911610514927	424.619089844090	553.390763204467	1036.203461735986	387.946553347897	615.976493366272	1019.906902968784	277.914616293677	569.665983034256	818.823398748578	223.003905631383	548.619104414593	984.603786793487	152.489065379670	579.689421075017	876.174086149490	155.098593045052	616.364641908011	1044.919614876366	34.918359771529	597.828886305304	915.394655643540	39.017456959121	376.715424508855	986.665007518038	35.205905524797	293.706187421704	1071.012466878773	95.985680946996	319.309457288501	1198.973160682478	42.227268602936	286.198274291119	995.684071772452	1086.953532971960	101.338652468498	1162.692233516282	883.676834429852	84.074626004613	1013.588145030000	1106.649168248947	703.280467135157	1096.931123290791	858.283119381900	716.578011521122	
54	48.384428571429	857.351554814188	1005.594856547620	427.750619382363	1030.541741232655	1433.350165456012	230.717111515790	1136.259689262006	1371.466646382606	392.945872148938	1051.272910038393	1446.717311592248	566.299039487092	1013.345019916144	1498.438840690169	386.570000706918	1089.608564429468	948.379523599054	541.208022741074	1071.573133393235	965.213966584939	268.012985576381	1171.644535576166	774.608835326137	516.161007640772	1129.401678850993	656.020403396524	595.410409299923	1220.280220369592	614.684850189791	519.689758076859	1237.750035521690	504.245701192029	545.956858868288	1122.078036243853	751.191379138351	295.918902919601	1031.156082038981	634.709019546667	240.240119018064	1116.085140125434	557.392697635269	301.897462582712	1115.872855702731	488.261234828187	313.283210725153	1087.179028620633	415.821159600740	306.954537293372	995.060207286241	303.299701915590	257.681805699844	1040.336450146486	191.455506644671	330.555784404101	1163.495876993404	427.653192025511	554.653441638149	1043.068136921819	387.076764663680	617.101946651685	1030.733522376343	276.299027556275	571.323197450768	831.829518968568	213.755007833450	550.133303569332	999.850532771660	149.908633487717	581.706706558929	891.558853104275	148.669908615419	618.489063195590	1064.533121433530	35.123753890213	600.742504029172	909.773079805396	39.026662935909	376.660473904508	981.083820767925	35.204597475473	293.648231562974	1065.445430138315	95.958095583020	319.237933887076	1193.403792850908	42.163985822688	286.140570525820	999.315709007410	1088.189790054875	99.021291234576	1167.663162168995	885.950725180445	83.279193006832	1008.372408615947	1108.454528593312	704.017212365202	1087.381223537151	858.857336618509	720.651625207506	
55	48.398285714286	855.790042214925	1006.617947781751	425.754886467581	1032.430500899714	1434.028662525319	230.039956321630	1136.145539914243	1371.730544393992	393.332705976545	1049.544445151605	1447.278568094712	565.735909889024	1013.599159799790	1499.060091904137	385.886682959455	1087.031481068869	949.625698096213	541.338742354611	1071.161681600947	965.340402429053	268.029224828545	1170.534526483429	777.572588984795	516.319575465574	1129.659096270001	658.746467353759	596.023550157492	1220.754097864512	618.170640587203	520.301780220490	1240.032687608064	508.813794159586	547.007316090484	1119.627917639168	750.579846140718	296.512938019609	1027.871404361594	634.869133075949	240.039981753875	1111.719552223848	556.871835755407	302.114810464188	1110.800619743646	487.854814368663	313.457169037764	1082.087646693434	415.699965382605	306.935126555943	989.851515585036	303.314338475974	257.594633852707	1034.901091105594	191.412749086172	330.544350352991	1168.498996758059	430.331455653473	556.117336147505	1050.035564521183	385.065816324270	618.724658220736	1042.386722454087	273.647440193837	573.441130269960	846.441708402992	202.101860829815	552.500671068833	1016.860914709945	146.329137106921	584.268678726726	909.006528940933	140.546176395595	621.436049065501	1086.715617350857	35.259971784734	604.300887511230	904.150113903522	39.019020992550	376.624084070884	975.497911454103	35.201908155504	293.602351052103	1059.871268545867	95.934248413821	319.191254248228	1187.827221276725	42.119813087253	286.095531399431	1002.739359674887	1089.390132452187	97.000293029667	1172.178826744222	887.987027688725	82.813574164768	1003.556358222512	1110.219932402664	704.880078896398	1078.734275194650	859.648200306314	724.237250665545	
56	48.412142857143	854.217506259230	1007.632543762634	423.898824867037	1034.428254255525	1434.633113930968	229.534617074737	1136.109462019177	1371.895805366730	393.864793804214	1047.930910043564	1447.766450151066	565.301178443229	1013.954191592481	1499.622028048002	385.353082803375	1084.434571717886	950.803628353727	541.638836141503	1070.735480677626	965.413706209307	268.204936654658	1169.031908132303	780.070943862623	516.748767102533	1129.097331859591	661.068400855688	596.801877743564	1220.193571103034	620.973527341122	521.036275068002	1241.117281565716	513.032062427836	548.078737799036	1117.067034868826	749.940741583642	297.315504035603	1024.521777285968	635.031294133172	239.933562829557	1107.226748457905	556.352316049607	302.474090233247	1105.572689807396	487.458829764441	313.746300378530	1076.885752948909	415.590299084906	306.994292513117	984.572599637513	303.317676812307	257.575080402878	1029.439990375843	191.377654158254	330.595834394811	1172.850096949007	432.635208901203	557.734555102565	1057.155611462152	382.025634451597	620.862454130538	1054.830775444516	270.174465758581	575.992499785912	862.790991807549	188.501203437005	555.756529719261	1035.556860713345	142.084892219248	587.358366967324	928.527355808550	131.165405365253	625.190427022275	1111.183720932669	35.584205629785	608.407914918825	898.529359639667	38.994240832737	376.604761626020	969.908164171214	35.196744749488	293.567806230519	1054.290685468249	95.913894879277	319.170426016601	1182.244716867004	42.096170642116	286.063214832851	1005.956651134625	1090.515361616948	95.265176679127	1176.250363937546	889.752772601054	82.673706853676	999.123245164857	1111.871584995735	705.822599851897	1070.998653918834	860.547376886514	727.388733659996	
57	48.426000000000	852.645467895858	1008.613882856114	422.194545491103	1036.506743226832	1435.139320868671	229.210919397426	1136.149382225897	1371.943575862890	394.542120953651	1046.453921695552	1448.155042113172	565.010661216991	1014.410915028933	1500.104273925754	384.981470869596	1081.838230938138	951.867133454594	542.093991525458	1070.295348588909	965.424242852285	268.524398379739	1167.114857790442	782.002445203866	517.435862233121	1127.656412074354	662.918520019549	597.742090410081	1218.531412731793	622.993591946738	521.883047608970	1240.937993279664	516.808788096724	549.121580344788	1114.413812630012	749.269049135634	298.281089094922	1021.128175953950	635.183356648976	239.911999479397	1102.637521868282	555.826880091628	302.955368940136	1100.229218317407	487.069718289249	314.136830749121	1071.607940764676	415.481810588061	307.125073074526	979.249145798950	303.305707511746	257.614436731179	1023.965253034736	191.344685769528	330.706435435525	1176.475449277720	434.574147553583	559.458014123682	1064.450326478264	378.120791171023	623.505039107685	1067.989289264774	266.149282219453	578.916632296098	880.951378846080	173.481006517736	559.857150487861	1055.809628263386	137.570133488625	590.916042959521	950.065656539275	121.019659624583	629.662807345716	1137.594626561733	36.417702259566	612.910249127312	892.913569116505	38.953515852995	376.599822249120	964.315125848770	35.188275678536	293.543741546296	1048.703687455636	95.896471182709	319.175156329499	1176.656839317138	42.093315056463	286.043291077067	1008.972660048746	1091.531286985983	93.813641832523	1179.889488248162	891.220291275230	82.853818486131	995.059383760869	1113.350028516730	706.804728521301	1064.165004388616	861.462650066469	730.169488282683	
58	48.439857142857	851.096640206037	1009.541720523419	420.657075864444	1038.633078043659	1435.531885598619	229.078377118105	1136.262239158289	1371.864809855967	395.363441478277	1045.134506466748	1448.428421367209	564.880339171088	1014.965592534513	1500.493945504240	384.784505301954	1079.266997868723	952.777724301246	542.689775864690	1069.845341271888	965.367460248867	268.973801344342	1164.754750196185	783.278560604457	518.366888662051	1125.284655439365	664.252272736369	598.849803501051	1215.720847742198	624.164680083979	522.844637901423	1239.455040168555	520.073819671372	550.106012082116	1111.688925696877	748.562789839602	299.373021270421	1017.712188648206	635.316973523605	239.969364493301	1097.980824463618	555.289705350957	303.541732953559	1094.808746108235	486.685608146694	314.615833572192	1066.285670408890	415.366853435242	307.321869419061	973.903777774387	303.277834841343	257.703571859102	1018.486651097955	191.309614925866	330.869702667091	1179.308529920176	436.184211126036	561.247911959309	1071.903731769350	373.557615383457	626.608488270875	1081.739524302255	261.875118009771	582.122220507431	900.911353653012	157.618436297658	564.670099797309	1077.425761610435	133.199080567126	594.836505918860	973.475092464515	110.620885597857	634.686991274646	1165.541129271050	38.094978653120	617.609583175701	887.304637586143	38.899626796137	376.605452998724	958.719074526071	35.175958188060	293.529209148500	1043.109893295830	95.881089944597	319.203659686930	1171.063649483845	42.110006118664	286.035106491448	1011.793171249406	1092.410557448249	92.651772500185	1183.107542033867	892.369323549488	83.347293181048	991.358174073593	1114.612040192773	707.795619503630	1058.214673648562	862.320442249508	732.642768118389	
